<svg xmlns="http://www.w3.org/2000/svg" xmlns:xlink="http://www.w3.org/1999/xlink" width="100" zoomAndPan="magnify" viewBox="0 0 37.5 37.499999" height="50" preserveAspectRatio="xMidYMid meet" version="1.0"><defs><clipPath id="a38d1b20a4"><path d="M 3.433594 6.109375 L 33.777344 6.109375 L 33.777344 30.53125 L 3.433594 30.53125 Z M 3.433594 6.109375 " clip-rule="nonzero"/></clipPath></defs><g clip-path="url(#a38d1b20a4)"><path fill="#000000" d="M 32.289062 19.390625 C 32.210938 12.035156 26.078125 6.109375 18.527344 6.109375 C 10.976562 6.109375 4.84375 12.074219 4.765625 19.425781 C 4.039062 19.988281 3.503906 20.703125 3.503906 21.601562 L 3.503906 25.992188 C 3.503906 27.605469 5.226562 28.582031 6.570312 29.144531 L 6.570312 29.554688 C 6.570312 30.082031 7.183594 30.53125 7.910156 30.53125 L 8.292969 30.53125 C 9.023438 30.53125 9.636719 30.117188 9.636719 29.554688 L 9.636719 18.1875 C 9.636719 17.664062 9.023438 17.210938 8.292969 17.210938 L 7.910156 17.210938 C 7.679688 17.210938 7.449219 17.25 7.257812 17.363281 C 8.332031 12.183594 13.007812 8.285156 18.605469 8.285156 C 24.203125 8.285156 28.878906 12.183594 29.953125 17.363281 C 29.757812 17.289062 29.53125 17.210938 29.300781 17.210938 L 28.917969 17.210938 C 28.1875 17.210938 27.574219 17.625 27.574219 18.1875 L 27.574219 29.554688 C 27.574219 30.082031 28.1875 30.53125 28.917969 30.53125 L 29.300781 30.53125 C 30.027344 30.53125 30.640625 30.117188 30.640625 29.554688 L 30.640625 29.105469 C 31.984375 28.542969 33.707031 27.566406 33.707031 25.953125 L 33.707031 21.566406 C 33.59375 20.664062 33.019531 19.953125 32.289062 19.390625 Z M 32.289062 19.390625 " fill-opacity="1" fill-rule="nonzero"/></g></svg>