<svg xmlns="http://www.w3.org/2000/svg" xmlns:xlink="http://www.w3.org/1999/xlink" width="100" zoomAndPan="magnify" viewBox="0 0 37.5 37.499999" height="100" preserveAspectRatio="xMidYMid meet" version="1.0"><defs><clipPath id="6790c16321"><path d="M 3.128906 2.554688 L 34.214844 2.554688 L 34.214844 33.640625 L 3.128906 33.640625 Z M 3.128906 2.554688 " clip-rule="nonzero"/></clipPath></defs><g clip-path="url(#6790c16321)"><path fill="#000000" d="M 34.214844 18.097656 C 34.214844 26.683594 27.253906 33.640625 18.671875 33.640625 C 10.085938 33.640625 3.128906 26.683594 3.128906 18.097656 C 3.128906 9.515625 10.085938 2.554688 18.671875 2.554688 C 27.253906 2.554688 34.214844 9.515625 34.214844 18.097656 Z M 14.902344 12.824219 C 14.902344 11.160156 16.253906 9.808594 17.917969 9.808594 L 19.425781 9.808594 C 21.089844 9.808594 22.4375 11.160156 22.4375 12.824219 L 22.4375 12.867188 C 24.164062 13.128906 25.515625 14.5625 25.628906 16.355469 L 26.003906 22.386719 C 26.140625 24.554688 24.417969 26.386719 22.246094 26.386719 L 15.097656 26.386719 C 12.925781 26.386719 11.203125 24.554688 11.335938 22.386719 L 11.714844 16.355469 C 11.824219 14.5625 13.179688 13.128906 14.902344 12.867188 Z M 16.410156 12.824219 L 20.933594 12.824219 C 20.933594 11.992188 20.257812 11.316406 19.425781 11.316406 L 17.917969 11.316406 C 17.085938 11.316406 16.410156 11.992188 16.410156 12.824219 Z M 14.902344 16.589844 C 14.902344 18.257812 16.253906 19.605469 17.917969 19.605469 L 19.425781 19.605469 C 21.089844 19.605469 22.4375 18.257812 22.4375 16.589844 L 22.4375 15.839844 L 20.933594 15.839844 L 20.933594 16.589844 C 20.933594 17.425781 20.257812 18.097656 19.425781 18.097656 L 17.917969 18.097656 C 17.085938 18.097656 16.410156 17.425781 16.410156 16.589844 L 16.410156 15.839844 L 14.902344 15.839844 Z M 14.902344 16.589844 " fill-opacity="1" fill-rule="evenodd"/></g></svg>